<svg width="40" height="40" viewBox="0 0 40 41" fill="none" xmlns="http://www.w3.org/2000/svg">
<path d="M20 0.365723C8.97182 0.365723 0 9.33754 0 20.3657C0 31.3939 8.97182 40.3657 20 40.3657C31.0282 40.3657 40 31.3939 40 20.3657C40 9.33754 31.0282 0.365723 20 0.365723ZM20 38.461C10.0223 38.461 1.90476 30.3434 1.90476 20.3657C1.90476 10.388 10.0223 2.27048 20 2.27048C29.9777 2.27048 38.0952 10.388 38.0952 20.3657C38.0952 30.3434 29.9777 38.461 20 38.461Z" fill="#D4C09E"/>
<path d="M29.2175 13.978C29.5895 14.35 29.5895 14.9527 29.2175 15.3247L18.4423 26.0999C18.2563 26.2859 18.0126 26.3789 17.7689 26.3789C17.5253 26.3789 17.2816 26.2859 17.0956 26.0999L11.7077 20.7126C11.3357 20.3405 11.3357 19.7379 11.7077 19.3658C12.0798 18.9938 12.6824 18.9938 13.0545 19.3658L17.7689 24.0798L27.8708 13.978C28.2428 13.606 28.8455 13.606 29.2175 13.978Z" fill="#544A3F"/>
</svg>
