<svg width="153" height="50" viewBox="0 0 153 50" fill="none" xmlns="http://www.w3.org/2000/svg">
<path d="M13.7924 15.9938C14.4343 17.1488 15.5043 18.0493 16.0976 18.2842L16.5353 18.4408H12.7419C12.2264 17.8731 11.6428 17.002 11.0008 15.8176L8.67616 11.775C8.0342 10.6396 7.37279 10.1795 6.6822 9.92505C6.35149 9.81738 6.27368 9.76844 5.86516 9.76844C5.6609 9.73907 5.53446 9.73907 5.45664 9.73907H4.61043L4.58125 16.8453C4.58125 17.3054 4.73687 17.6676 5.01894 17.9514C5.63172 18.4702 6.04024 18.4408 6.47794 18.4408H0C0.311252 18.4408 0.593325 18.3919 1.17692 18.1863C1.77025 17.9514 2.17877 17.3348 2.17877 16.4342V2.41746C2.17877 1.51694 1.74107 0.870916 1.12829 0.665363C0.534965 0.459809 0.282072 0.410868 0 0.410868C0.690591 0.410868 1.7897 0.381503 3.2487 0.361927C4.70769 0.312985 5.8068 0.283621 6.49739 0.312985C9.87254 0.34235 11.672 0.773033 12.6933 2.31958C13.2282 3.04391 13.4617 3.94443 13.4325 5.02113C13.3839 6.53831 12.7905 7.72269 11.6914 8.60364C10.9522 9.22029 10.1254 9.5531 9.28894 9.6314C9.95035 9.83696 10.6993 10.6396 11.4872 12.0491L13.7924 15.9938ZM11.0786 4.97219C11.1078 1.37012 8.88042 0.312985 4.58125 0.538115L4.61043 9.44543C5.55391 9.44543 6.35149 9.39648 6.93509 9.31818C9.61964 9.01474 11.0592 7.37032 11.0786 4.97219Z" fill="#544A3F"/>
<path d="M22.7312 17.2273C24.8516 17.3056 26.3398 16.503 27.186 14.7802C26.9525 15.8863 26.3689 16.8358 25.4157 17.609C24.4722 18.3529 23.344 18.7445 22.0406 18.7151C20.426 18.6857 19.0448 18.0984 17.9457 16.9924C16.8466 15.8569 16.2824 14.3887 16.2533 12.617C16.2046 10.17 17.1481 8.36892 19.1226 7.20412C20.1244 6.5581 21.3014 6.27424 22.6339 6.35254C23.9665 6.43085 25.0364 6.9692 25.8826 7.94803C26.7288 8.89749 27.1082 10.1602 27.0887 11.7067H18.2083C18.2083 13.3022 18.6168 14.6138 19.4339 15.622C20.2703 16.64 21.3695 17.1783 22.7312 17.2273ZM20.0175 7.26285C18.8892 8.08506 18.2764 9.50436 18.1986 11.511C20.7275 11.511 22.2449 11.4816 22.7798 11.4131C23.8789 11.3054 24.5987 11.0313 24.9586 10.5419C25.4741 9.87631 25.62 8.20252 24.3653 7.2237C23.237 6.25466 21.3403 6.31339 20.0175 7.26285Z" fill="#544A3F"/>
<path d="M32.3021 16.689C32.3021 17.4916 32.6814 18.03 33.2261 18.2355C33.8194 18.4117 34.0237 18.4411 34.2961 18.4411H28.3044C28.5865 18.4411 28.82 18.4117 29.3549 18.2355C29.9482 18.03 30.2984 17.4916 30.2984 16.689V3.37695C30.2984 1.90871 29.4814 1.90871 29.2187 1.98702L32.3021 0V16.689Z" fill="#544A3F"/>
<path d="M47.3784 16.5126C47.0964 17.4621 46.6587 18.6465 45.1802 18.6465C44.0033 18.6465 43.41 17.9515 43.41 16.5322V11.5598C41.7467 12.0786 40.7449 12.4309 39.6458 13.0574C38.5467 13.6545 38.0117 14.3984 37.9339 15.3283C37.8561 16.4833 38.5758 17.5208 39.9765 17.5991C41.0561 17.6774 42.1553 17.2663 43.303 16.3658C42.6124 17.0901 42.4276 17.2957 41.6397 17.9124C40.8422 18.5094 39.9473 18.7639 38.926 18.7639C37.8561 18.7639 37.0585 18.4507 36.5722 17.8341C36.0858 17.2174 35.8816 16.5224 35.9302 15.7785C35.9594 15.0836 36.2901 14.4865 36.6208 14.0754C37.0001 13.6349 37.7977 13.2042 38.3132 12.9203C38.8482 12.6365 40.0835 12.2743 40.6963 12.0981L42.0483 11.736L43.4003 11.3542V9.88599C43.4003 7.43892 42.2525 6.38179 40.5309 6.69501C39.2275 6.92993 38.2257 7.67384 38.2257 8.90716C38.2257 9.23996 38.5564 9.88599 38.5856 10.2188C38.6634 11.6577 36.2317 11.8926 36.3095 10.0915C36.3387 9.23996 36.7667 8.46669 37.6615 7.80109C38.5564 7.13549 39.5291 6.69501 40.5795 6.48946C41.9121 6.23497 43.0598 6.36221 44.013 6.90057C44.9857 7.43892 45.4428 8.47648 45.4234 10.0426V16.356C45.4234 17.0216 45.5985 17.4132 45.9584 17.4915C46.3377 17.5698 46.649 17.4132 46.931 17.002C47.1158 16.9727 47.2715 16.8161 47.3784 16.5126Z" fill="#544A3F"/>
<path d="M56.3074 15.4068C56.1032 16.4835 55.2375 18.7838 52.5919 18.6761C51.2593 18.6468 50.3936 18.079 49.9559 17.0806C49.5474 16.0529 49.421 15.0936 49.421 13.6547V7.05746H48.3219L48.0106 6.82254H49.421V3.75882L51.4441 2.05566C51.4441 3.55327 51.4441 5.14875 51.4149 6.82254H54.5372L54.3038 7.05746H51.4149V13.7526C51.4441 16.3074 51.7943 17.4134 53.3603 17.5407C54.7998 17.6679 55.8211 16.6695 56.3074 15.4068Z" fill="#544A3F"/>
<path d="M61.0443 16.6891C61.0443 17.5113 61.375 18.03 61.8614 18.2356C62.3769 18.4118 62.6006 18.4411 62.834 18.4411H57.1537C57.4358 18.4411 57.64 18.4118 58.1555 18.2356C58.6905 18.03 59.0504 17.5113 59.0504 16.6891V9.55341C59.0504 8.52565 58.5349 8.16348 57.9999 8.29073L61.0443 6.33308V16.6891ZM59.9161 2.29053C60.6066 2.29053 61.2 2.85825 61.2 3.58258C61.2 4.27754 60.6066 4.87463 59.9161 4.87463C59.2255 4.87463 58.6613 4.27754 58.6613 3.58258C58.6613 2.85825 59.2255 2.29053 59.9161 2.29053Z" fill="#544A3F"/>
<path d="M67.3375 17.9808C66.0342 17.3838 64.935 16.0232 64.4973 14.0949C64.1375 12.3428 64.3709 10.7767 65.1588 9.37697C65.9563 7.95767 67.1527 7.05715 68.7673 6.61668C70.6835 6.12727 72.3467 6.30346 73.7863 7.21377C75.2161 8.11429 76.0623 9.61189 76.2958 11.6968C76.5 13.6055 76.0623 15.2303 74.9632 16.5616C73.8836 17.8732 72.5024 18.5975 70.8197 18.6758C69.7206 18.6954 68.6701 18.5192 67.3375 17.9808ZM72.0939 7.5172C71.092 6.61668 69.9734 6.38176 68.7187 6.87118C68.0281 7.12567 67.4932 7.61509 67.1041 8.36878C66.3065 9.83702 66.3357 11.6674 66.6664 13.5957C66.9971 15.3184 67.639 16.5616 68.5339 17.3055C69.4579 18.0494 70.4306 18.392 71.4227 18.3136C72.2689 18.2353 72.9109 17.8242 73.3972 17.0999C74.3991 15.6317 74.3991 13.5468 74.0586 11.2563C73.7571 9.68041 73.0957 8.41772 72.0939 7.5172Z" fill="#544A3F"/>
<path d="M81.5676 16.689C81.5676 17.4916 81.9275 18.03 82.4138 18.2355C82.9293 18.4117 83.153 18.4411 83.3865 18.4411H77.7839C78.0174 18.4411 78.2216 18.4117 78.7274 18.2355C79.2429 18.03 79.5736 17.4916 79.5736 16.689V9.47504C79.5736 8.24172 78.6496 8.26129 78.5037 8.3396L81.5773 6.33301V16.689H81.5676ZM89.2419 16.689C89.2419 17.4916 89.6018 18.03 90.0881 18.2355C90.6037 18.4117 90.8274 18.4411 91.0608 18.4411H85.4291C85.6625 18.4411 85.8668 18.4117 86.3726 18.2355C86.8881 18.03 87.2188 17.4916 87.2188 16.689V12.2549V11.8927C87.2188 11.2957 87.2188 10.8845 87.1896 10.6301C87.1896 10.3462 87.1604 10.0134 87.1118 9.62186C87.0048 8.51579 86.7033 8.18299 85.9057 7.82082C85.3707 7.61527 84.6801 7.66421 83.8534 7.94807C83.0558 8.23193 82.3166 8.6724 81.6746 9.2597C83.0071 7.68379 84.9233 6.29385 86.8686 6.47983C87.8121 6.57771 88.5319 6.99861 88.7848 7.69358C89.0182 8.23193 89.1447 8.43748 89.1641 9.26948C89.1933 9.65123 89.2127 9.96445 89.2127 10.1504V11.1293V11.5893V16.689H89.2419Z" fill="#544A3F"/>
<path d="M101.118 10.0231C100.116 8.0361 98.3266 6.70489 96.5855 6.72447C95.3794 6.75383 94.6888 7.29219 94.5624 8.30038C94.4359 9.07365 94.5332 10.4929 97.6555 11.3152C100.807 12.1667 101.877 13.2434 101.877 14.976C101.906 17.0413 100.466 18.7347 97.6263 18.7347C96.605 18.7347 95.6323 18.4997 94.9612 18.3529C94.7861 18.304 94.5527 18.2257 94.2998 18.118L93.3271 17.6286L92.9672 17.423L92.9186 13.9678C93.6092 15.5143 94.4554 16.6204 95.5059 17.286C97.422 18.5487 100.34 18.7249 100.603 16.7966C100.885 15.3773 99.912 14.2223 97.0232 13.4001C94.2317 12.5974 93.2396 11.4914 93.2396 9.8665C93.259 7.92843 94.825 6.3623 97.5874 6.3623C99.0464 6.3623 100.223 6.72447 101.118 7.46838V10.0231Z" fill="#544A3F"/>
<path d="M107.158 16.689C107.158 17.4916 107.538 18.03 108.082 18.2355C108.676 18.4117 108.88 18.4411 109.152 18.4411H103.161C103.443 18.4411 103.676 18.4117 104.211 18.2355C104.805 18.03 105.155 17.4916 105.155 16.689V3.19097C105.155 1.95765 104.561 1.95765 104.231 1.95765L104.075 1.98702L107.158 0V16.689ZM114.988 16.689C114.988 17.4916 115.348 18.03 115.835 18.2355C116.35 18.4117 116.574 18.4411 116.807 18.4411H111.205C111.438 18.4411 111.642 18.4117 112.148 18.2355C112.664 18.03 112.994 17.4916 112.994 16.689V12.2549V11.8927C112.994 11.2956 112.994 10.8845 112.965 10.63C112.965 10.3462 112.936 10.0134 112.887 9.62185C112.78 8.51578 112.479 8.18298 111.681 7.82082C111.146 7.61526 110.456 7.6642 109.61 7.94806C108.792 8.23192 108.044 8.67239 107.411 9.25969C108.053 8.48642 108.822 7.82082 109.765 7.22373C110.709 6.62665 111.662 6.40152 112.654 6.47982C113.802 6.47982 114.424 7.28246 114.706 7.97743C114.804 8.15362 114.881 8.4962 114.911 8.92689C114.94 9.36736 114.959 9.70016 114.959 9.93508C114.988 10.1406 114.988 10.5322 114.988 11.0705V11.5893V16.689Z" fill="#544A3F"/>
<path d="M122.001 16.6891C122.001 17.5113 122.332 18.03 122.818 18.2356C123.334 18.4118 123.558 18.4411 123.791 18.4411H118.111C118.393 18.4411 118.597 18.4118 119.112 18.2356C119.647 18.03 120.007 17.5113 120.007 16.6891V9.55341C120.007 8.52565 119.492 8.16348 118.957 8.29073L122.001 6.33308V16.6891ZM120.883 2.29053C121.573 2.29053 122.167 2.85825 122.167 3.58258C122.167 4.27754 121.573 4.87463 120.883 4.87463C120.192 4.87463 119.628 4.27754 119.628 3.58258C119.628 2.85825 120.192 2.29053 120.883 2.29053Z" fill="#544A3F"/>
<path d="M136.358 8.0068C137.282 9.06393 137.739 10.5322 137.71 12.3821C137.681 14.2126 137.175 15.7004 136.124 16.8652C135.103 18.0202 133.897 18.6173 132.516 18.6466C130.95 18.6466 129.724 18.1866 128.781 17.2567V22.3074C128.781 23.0513 129.16 23.5995 129.675 23.7757C130.21 23.9519 130.415 23.9812 130.697 23.9812H125.036C125.085 23.9812 126.777 23.9812 126.777 22.3074V9.66101C126.777 8.55494 126.184 8.19278 125.649 8.32002L128.771 6.33301V8.73113V8.76049V13.038C128.771 14.839 129.209 16.2094 130.055 17.1294C130.921 18.0593 131.922 18.4704 133.021 18.3432C134.763 18.2159 135.784 15.9255 135.764 12.7247C135.687 9.53377 134.228 7.70336 132.253 7.49781C130.95 7.37056 129.851 7.95786 128.975 9.22054C129.102 8.88774 129.355 8.44727 129.948 7.7523C130.561 7.02797 131.64 6.48962 132.837 6.46026C134.266 6.44068 135.443 6.94967 136.358 8.0068ZM128.995 9.22054H128.965H128.995Z" fill="#544A3F"/>
<path d="M99.202 41.0817C99.8439 42.2367 100.914 43.1372 101.507 43.3721L101.945 43.5287H98.1612C97.6457 42.961 97.0621 42.0898 96.4201 40.9055L94.0955 36.8629C93.4535 35.7275 92.7921 35.2674 92.1015 35.0129C91.7708 34.9053 91.693 34.8563 91.2845 34.8563C91.0802 34.827 90.9538 34.827 90.876 34.827H90.0297L90.0006 41.9332C90.0006 42.3933 90.1562 42.7554 90.4383 43.0393C91.051 43.5581 91.4596 43.5287 91.8972 43.5287H85.4193C85.7306 43.5287 86.0126 43.4798 86.5962 43.2742C87.1896 43.0393 87.5981 42.4226 87.5981 41.5221V27.5054C87.5981 26.6048 87.1604 25.9588 86.5476 25.7533C85.9543 25.5477 85.7014 25.4988 85.4193 25.4988C86.1099 25.4988 87.209 25.4694 88.668 25.4498C90.127 25.4009 91.2261 25.3715 91.9167 25.4009C95.2918 25.4302 97.0913 25.8609 98.1126 27.4075C98.6475 28.1318 98.881 29.0323 98.8518 30.109C98.8032 31.6262 98.2098 32.8106 97.1107 33.6915C96.3715 34.3082 95.5447 34.641 94.7082 34.7193C95.3697 34.9248 96.1186 35.7275 96.9065 37.137L99.202 41.0817ZM96.4882 30.0503C96.5174 26.4482 94.29 25.3911 89.9908 25.6162L90.02 34.5235C90.9635 34.5235 91.7611 34.4746 92.3447 34.3963C95.0292 34.0928 96.459 32.4484 96.4882 30.0503Z" fill="#544A3F"/>
<path d="M108.131 42.3147C110.251 42.393 111.74 41.5904 112.586 39.8676C112.352 40.9737 111.769 41.9232 110.815 42.6964C109.872 43.4404 108.744 43.8319 107.44 43.8025C105.826 43.7732 104.445 43.1859 103.345 42.0798C102.246 40.9443 101.682 39.4761 101.653 37.7044C101.604 35.2574 102.548 33.4563 104.522 32.2915C105.524 31.6455 106.701 31.3616 108.034 31.4399C109.366 31.5183 110.436 32.0566 111.282 33.0354C112.129 33.9849 112.508 35.2476 112.488 36.7941H103.608C103.608 38.3896 104.017 39.7012 104.834 40.7094C105.68 41.7176 106.779 42.2658 108.131 42.3147ZM105.417 32.3405C104.289 33.1627 103.676 34.582 103.598 36.5886C106.137 36.5886 107.645 36.5592 108.18 36.4907C109.279 36.383 109.998 36.1089 110.358 35.6195C110.874 34.9539 111.02 33.2801 109.765 32.3013C108.646 31.3421 106.75 31.391 105.417 32.3405Z" fill="#544A3F"/>
<path d="M126.437 41.5907C126.154 42.5401 125.717 43.7245 124.238 43.7245C123.061 43.7245 122.468 43.0296 122.468 41.6103V36.6378C120.805 37.1566 119.803 37.509 118.704 38.1354C117.605 38.7325 117.07 39.4764 116.992 40.4063C116.914 41.5613 117.634 42.5989 119.044 42.6772C120.114 42.7555 121.223 42.3444 122.371 41.4439C121.68 42.1682 121.505 42.3738 120.708 42.9904C119.92 43.5875 119.015 43.842 117.994 43.842C116.924 43.842 116.126 43.5288 115.64 42.9121C115.154 42.2954 114.949 41.6005 114.998 40.8566C115.027 40.1616 115.358 39.5645 115.689 39.1534C116.068 38.7129 116.866 38.2823 117.381 37.9984C117.916 37.7145 119.151 37.3524 119.764 37.1762L121.116 36.814L122.468 36.4323V34.9934C122.468 32.5463 121.32 31.4892 119.599 31.8024C118.295 32.0374 117.294 32.7813 117.294 34.0146C117.294 34.3474 117.624 34.9934 117.653 35.3262C117.731 36.7651 115.3 37 115.377 35.199C115.407 34.3474 115.835 33.5741 116.729 32.9085C117.624 32.2429 118.597 31.8024 119.647 31.5969C120.98 31.3424 122.128 31.4696 123.081 32.008C124.054 32.5463 124.511 33.5839 124.491 35.15V41.4634C124.491 42.129 124.666 42.5206 125.026 42.5989C125.415 42.6772 125.717 42.5206 125.999 42.1095C126.174 42.0605 126.33 41.9039 126.437 41.5907Z" fill="#544A3F"/>
<path d="M135.317 42.8531C134.782 43.4698 133.936 43.8026 132.885 43.8319C131.378 43.8613 130.074 43.3425 128.995 42.256C127.944 41.15 127.409 39.6524 127.38 37.773C127.331 35.8154 127.866 34.2688 128.995 33.1628C130.142 32.0567 131.475 31.4596 133.012 31.44C134.471 31.4107 135.618 31.8218 136.523 32.6733V28.4252C136.523 27.3192 135.862 26.957 135.346 27.1332L138.498 25.0679V40.778C138.498 41.8058 139.11 41.8645 139.499 41.8645H139.733L136.533 43.9494V37.3521C136.533 33.8773 135.045 31.7141 132.924 31.6358C131.903 31.6064 131.057 32.1252 130.366 33.1823C129.675 34.2395 129.393 35.6 129.471 37.3032C129.549 38.928 129.958 40.2397 130.755 41.2478C131.553 42.256 132.467 42.7944 133.517 42.8727C134.724 42.9216 135.696 42.4127 136.406 41.3262C136.056 41.982 135.901 42.2365 135.317 42.8531Z" fill="#544A3F"/>
<path d="M153 31.9292C152.387 32.0858 151.872 32.4186 151.434 32.908C151.152 33.1625 150.899 33.603 150.636 34.2001L146.639 44.0373L145.18 47.5708C144.664 48.8335 144.1 49.088 143.205 48.9901C142.563 48.8825 142.155 48.2462 142.34 47.6296C142.515 47.1108 142.874 46.8563 143.419 46.8857C143.799 46.915 144.265 47.4827 144.392 47.5023C144.781 47.5806 145.112 47.2968 145.394 46.6507L146.522 43.8905L141.912 33.4072C141.474 32.5556 140.686 32.0173 140.248 31.9879L139.918 31.939H145.092C145.092 31.9683 143.526 32.0662 144.09 33.4366L146.755 39.6717C147.008 40.2101 147.271 40.4743 147.524 40.4743C147.903 40.4743 148.088 39.9066 148.341 39.4172L150.383 34.3665L150.49 34.0826C150.899 32.9276 150.286 32.125 148.924 31.9488H153V31.9292Z" fill="#544A3F"/>
</svg>
